<svg xmlns="http://www.w3.org/2000/svg" viewBox="0 0 211.47 210"><defs><style>.cls-1{fill:none;}.cls-1,.cls-2{stroke:#1492e6;stroke-miterlimit:10;stroke-width:7px;}.cls-2{fill:#1492e6;}</style></defs><title>onpen_1</title><g id="Capa_2" data-name="Capa 2"><g id="Capa_1-2" data-name="Capa 1"><path class="cls-1" d="M5.42,202.69A10,10,0,0,1,3.53,196L40.39,92.34A16.42,16.42,0,0,1,48,83.78L96.15,60,150,112.32l-24.57,50.42a16.76,16.76,0,0,1-6.62,6.66L13.92,206.49C13.48,206.52,8.46,206.71,5.42,202.69Z"/><path class="cls-1" d="M5.63,204.88l67.8-67.76"/><circle class="cls-1" cx="81.03" cy="128.5" r="14.5"/><path class="cls-2" d="M180.79,100.44a13.43,13.43,0,0,1-8.95,4.07,13.26,13.26,0,0,1-8.13-2.44L108.41,49.2a13.2,13.2,0,0,1,4.07-19.52L151.11,4.07a10.68,10.68,0,0,1,9.35,1.22l43.92,43.1a11.93,11.93,0,0,1,3.25,11.39Z"/></g></g></svg>